<svg width="133" height="56" viewBox="0 0 133 56" fill="none" xmlns="http://www.w3.org/2000/svg">
<rect width="133" height="56" rx="28" fill="#018669"/>
<path d="M40.8404 25.9874C40.8404 22.5825 38.0012 20 34.3549 20C30.2762 20 27.019 23.4482 27.019 27.7187C27.019 32.321 30.6797 36 35.6087 36C40.5377 36 44.9479 32.0902 45.2937 26.9684H43.0454C42.6275 30.8061 39.3847 33.7493 35.6087 33.7493C31.9768 33.7493 29.2818 31.0803 29.2818 27.7187C29.2818 24.6889 31.5301 22.2507 34.3549 22.2507C36.7185 22.2507 38.5776 23.8665 38.5776 25.9874C38.5776 27.7475 37.3094 29.2191 35.6231 29.2191V31.4698C38.6065 31.4698 40.8404 28.9739 40.8404 25.9874Z" fill="white"/>
<path d="M57.264 34V22.8H60.496C61.648 22.8 62.6667 23.0187 63.552 23.456C64.4373 23.8827 65.1307 24.5173 65.632 25.36C66.1333 26.2027 66.384 27.216 66.384 28.4C66.384 29.584 66.1333 30.5973 65.632 31.44C65.1307 32.2827 64.4373 32.9227 63.552 33.36C62.6667 33.7867 61.648 34 60.496 34H57.264ZM60.544 32.416C61.792 32.416 62.784 32.0747 63.52 31.392C64.2667 30.7093 64.64 29.712 64.64 28.4C64.64 27.088 64.2667 26.0907 63.52 25.408C62.784 24.7147 61.792 24.368 60.544 24.368H58.992V32.416H60.544ZM71.8755 34.224C71.1288 34.224 70.4302 34.064 69.7795 33.744C69.1395 33.4133 68.6222 32.9333 68.2275 32.304C67.8328 31.664 67.6355 30.9067 67.6355 30.032C67.6355 29.1467 67.8328 28.3893 68.2275 27.76C68.6222 27.1307 69.1395 26.656 69.7795 26.336C70.4302 26.0053 71.1288 25.84 71.8755 25.84C72.6222 25.84 73.3155 26.0053 73.9555 26.336C74.6062 26.656 75.1288 27.1307 75.5235 27.76C75.9182 28.3893 76.1155 29.1467 76.1155 30.032C76.1155 30.9067 75.9182 31.664 75.5235 32.304C75.1288 32.9333 74.6062 33.4133 73.9555 33.744C73.3155 34.064 72.6222 34.224 71.8755 34.224ZM71.8755 32.688C72.3448 32.688 72.7715 32.5813 73.1555 32.368C73.5502 32.144 73.8648 31.8293 74.0995 31.424C74.3342 31.0187 74.4515 30.5547 74.4515 30.032C74.4515 29.4987 74.3342 29.0293 74.0995 28.624C73.8648 28.2187 73.5502 27.9093 73.1555 27.696C72.7715 27.472 72.3448 27.36 71.8755 27.36C71.4062 27.36 70.9742 27.472 70.5795 27.696C70.1955 27.9093 69.8862 28.2187 69.6515 28.624C69.4168 29.0293 69.2995 29.4987 69.2995 30.032C69.2995 30.5547 69.4168 31.0187 69.6515 31.424C69.8862 31.8293 70.1955 32.144 70.5795 32.368C70.9742 32.5813 71.4062 32.688 71.8755 32.688ZM77.6586 34V26.064H79.3066V27.408C79.6053 26.9173 79.9893 26.5333 80.4586 26.256C80.9386 25.9787 81.4613 25.84 82.0266 25.84C82.8586 25.84 83.5306 26.0853 84.0426 26.576C84.5546 27.056 84.8106 27.728 84.8106 28.592V34H83.1626V29.184C83.1626 28.608 83.008 28.16 82.6986 27.84C82.3893 27.52 81.952 27.36 81.3866 27.36C81.0133 27.36 80.6666 27.4667 80.3466 27.68C80.0266 27.8933 79.7706 28.1867 79.5786 28.56C79.3973 28.9333 79.3066 29.3493 79.3066 29.808V34H77.6586ZM88.9593 34.224C88.1593 34.224 87.5139 34 87.0233 33.552C86.5326 33.0933 86.2873 32.496 86.2873 31.76C86.2873 31.0133 86.5433 30.4267 87.0553 30C87.5779 29.5733 88.2446 29.296 89.0553 29.168L91.5993 28.768V28.432C91.5993 27.984 91.4553 27.6427 91.1673 27.408C90.8793 27.1733 90.4686 27.056 89.9353 27.056C89.4126 27.056 89.0019 27.1627 88.7033 27.376C88.4153 27.5787 88.2713 27.8347 88.2713 28.144C88.2713 28.208 88.2819 28.2773 88.3033 28.352L86.8473 28.848C86.7619 28.6453 86.7193 28.4267 86.7193 28.192C86.7193 27.776 86.8526 27.392 87.1193 27.04C87.3859 26.6773 87.7593 26.3893 88.2393 26.176C88.7299 25.952 89.2953 25.84 89.9353 25.84C91.0019 25.84 91.8179 26.0747 92.3833 26.544C92.9593 27.0133 93.2473 27.696 93.2473 28.592V32.016C93.2473 32.4747 93.2846 32.848 93.3593 33.136C93.4339 33.4133 93.5673 33.7013 93.7593 34H92.0793C91.8019 33.6373 91.6633 33.1627 91.6633 32.576C91.4179 33.088 91.0499 33.4933 90.5593 33.792C90.0793 34.08 89.5459 34.224 88.9593 34.224ZM89.2953 32.848C89.9886 32.848 90.5433 32.6027 90.9593 32.112C91.3859 31.6107 91.5993 30.9707 91.5993 30.192V29.968L89.4233 30.32C88.9326 30.3947 88.5593 30.5493 88.3033 30.784C88.0473 31.0187 87.9193 31.3173 87.9193 31.68C87.9193 32.0427 88.0419 32.3307 88.2873 32.544C88.5433 32.7467 88.8793 32.848 89.2953 32.848ZM97.9229 34.224C97.2295 34.224 96.6695 34.0373 96.2429 33.664C95.8162 33.28 95.6029 32.6667 95.6029 31.824V27.376H94.3229V26.064H95.6029V23.92H97.2669V26.064H99.0749V27.376H97.2669V31.584C97.2669 32.3627 97.6135 32.752 98.3069 32.752C98.5309 32.752 98.7495 32.72 98.9629 32.656L99.1069 34.032C98.7549 34.16 98.3602 34.224 97.9229 34.224ZM107.744 30.368H101.392C101.477 31.104 101.744 31.696 102.192 32.144C102.64 32.5813 103.216 32.8 103.92 32.8C104.474 32.8 104.944 32.6613 105.328 32.384C105.712 32.1067 106.032 31.7067 106.288 31.184L107.52 31.904C107.168 32.64 106.688 33.2107 106.08 33.616C105.472 34.0213 104.757 34.224 103.936 34.224C103.125 34.224 102.405 34.0373 101.776 33.664C101.157 33.2907 100.677 32.7893 100.336 32.16C99.9943 31.52 99.8236 30.8107 99.8236 30.032C99.8236 29.2213 100.005 28.496 100.368 27.856C100.73 27.216 101.221 26.72 101.84 26.368C102.469 26.016 103.168 25.84 103.936 25.84C104.661 25.84 105.312 26.0053 105.888 26.336C106.474 26.6667 106.928 27.1307 107.248 27.728C107.578 28.3253 107.744 29.0187 107.744 29.808V30.368ZM106.16 29.088C106.096 28.4693 105.85 27.9893 105.424 27.648C105.008 27.296 104.485 27.12 103.856 27.12C103.226 27.12 102.704 27.296 102.288 27.648C101.872 28 101.594 28.48 101.456 29.088H106.16Z" fill="white"/>
</svg>
